Coordinates
version=1
nRows=6
nColumns=34
inDegrees=yes

Units are S.I. units (second, meters, Newtons, ...)
If the header above contains a line with 'inDegrees', this indicates whether rotational values are in degrees (yes) or radians (no).

endheader
time	pelvis_tilt	pelvis_list	pelvis_rotation	pelvis_tx	pelvis_ty	pelvis_tz	hip_flexion_r	hip_adduction_r	hip_rotation_r	knee_angle_r	ankle_angle_r	subtalar_angle_r	mtp_angle_r	hip_flexion_l	hip_adduction_l	hip_rotation_l	knee_angle_l	ankle_angle_l	subtalar_angle_l	mtp_angle_l	lumbar_extension	lumbar_bending	lumbar_rotation	arm_flex_r	arm_add_r	arm_rot_r	elbow_flex_r	pro_sup_r	arm_flex_l	arm_add_l	arm_rot_l	elbow_flex_l	pro_sup_l
      2.05000000	      4.53545006	      1.21545700	    -22.09541345	      0.24855125	      0.99979345	      0.12446827	     -1.96395077	     -6.19700723	    -13.87681034	      1.64773422	     11.52512150	     -0.23265497	      0.00000000	      4.02798447	     -5.88967876	    -16.39447110	      5.50470266	     12.76642908	      2.76160560	      0.00000000	    -10.18711539	     -0.82581983	      1.23353181	     25.14352239	    -10.94582927	     31.34970846	     24.72576780	    119.74817918	     22.81257234	    -12.31488950	     36.73400918	     25.27655521	    117.90722155
      2.06666670	      4.54623141	      1.20906475	    -22.13691634	      0.24851934	      0.99980704	      0.12440969	     -1.96987963	     -6.19135307	    -13.87145083	      1.64374132	     11.51911255	     -0.22855571	      0.00000000	      4.00895813	     -5.89000338	    -16.39159854	      5.51173993	     12.76284514	      2.74633825	      0.00000000	    -10.15955285	     -0.77958955	      1.22943935	     25.13021839	    -10.93201174	     31.36085790	     24.72035329	    119.74817918	     22.85193096	    -12.30935203	     36.73822795	     25.30736898	    117.91051403
      2.08333330	      4.55033335	      1.20115414	    -22.16368610	      0.24821753	      0.99971903	      0.12444859	     -1.95691787	     -6.18212957	    -13.86291369	      1.63099126	     11.51683316	     -0.22384366	      0.00000000	      4.01412640	     -5.89261044	    -16.39050500	      5.50634854	     12.76469871	      2.72877696	      0.00000000	    -10.20402281	     -0.74842215	      1.23093492	     25.08652861	    -10.93915555	     31.36865326	     24.70384008	    119.74817918	     22.82055930	    -12.30956194	     36.74953592	     25.31958418	    117.91451036
      2.10000000	      4.55528681	      1.19963357	    -22.19848868	      0.24790941	      0.99964071	      0.12442110	     -1.93521032	     -6.16634929	    -13.85264311	      1.62098980	     11.51532857	     -0.21919855	      0.00000000	      4.02062601	     -5.91076291	    -16.38944909	      5.50612953	     12.76715082	      2.71220073	      0.00000000	    -10.27775851	     -0.74769485	      1.20756096	     25.01914505	    -10.98730749	     31.36873940	     24.67437406	    119.74817918	     22.74042130	    -12.31286684	     36.76588747	     25.31631696	    117.91886998
      2.11666670	      4.63270849	      1.03407714	    -22.41096358	      0.24845281	      0.99969836	      0.12491771	     -2.12476786	     -6.03027373	    -13.62448242	      1.55194700	     11.51472035	     -0.13401782	      0.00000000	      3.79191119	     -6.04932777	    -16.47849147	      5.54313855	     12.93524630	      2.25478491	      0.00000000	    -10.33423507	     -0.55835757	      1.25668865	     24.74754383	    -11.12488133	     31.28221782	     24.76186081	    119.74817918	     22.23378465	    -12.45505508	     36.97050660	     25.63928426	    118.00978171
      2.13333330	      4.62979633	      1.04314089	    -22.46264584	      0.24781999	      0.99956265	      0.12474529	     -2.06452782	     -6.02335834	    -13.61873958	      1.52709427	     11.51502943	     -0.13334000	      0.00000000	      3.83159291	     -6.06073493	    -16.46700186	      5.53675566	     12.92775768	      2.25975057	      0.00000000	    -10.49327786	     -0.58262150	      1.19917907	     24.62295524	    -11.19291074	     31.27956310	     24.70773042	    119.74817918	     22.13352015	    -12.45632236	     36.98588129	     25.61358072	    118.01320720
